<svg xmlns="http://www.w3.org/2000/svg" id="svg1895" version="1.0" viewBox="0 0 1531 2138">
  <g id="layer1" fill-opacity="1">
    <path id="rajshahi" fill="#9a9a9a" fill-rule="evenodd" stroke="#fff" stroke-linecap="butt"
      stroke-linejoin="miter" stroke-opacity="1" stroke-width="1"
      d="m121 790 3-9-8-11 1-16-7-9 1-10 25-7 15-7-2-10 24 1 4-4-4-6-6 4-9-5 16-9 19 6 1 10 8 3 7-9 6 5-1 14 11 5 27-15-1-3 14 5 7 6 10-1 9 9 10-4v12l1 7 10 4h6v8l-2 6-14 1-7 6h5l7 8-11 8 1 7 1 33-12 8-2 4 6 12 10-2 1 7 2 7 4 3-16 6-5 5 6 5-7 4 5 4-5 3 13 3 3 5-10 2-1 5h-13l-17-7-11-10-5-3-9-2v-5l10-2 1-26-8-19-10-1-5 7-19-1-11-6-9 7-11-6-11-11-5 1-1-6-12-2-12-6-11-16z" />
    <path id="nilphamari" fill="#9a9a9a" fill-rule="evenodd" stroke="#fff" stroke-dasharray="none"
      stroke-linecap="butt" stroke-linejoin="miter" stroke-miterlimit="4" stroke-opacity="1"
      stroke-width="1"
      d="m256 141 6-7 7 2 6 5-5 13 7 3 7 7 7-1-1-9-6-4 7-8 14 1 6 9 5 6 4 6 2-4h11l3 3 7-4v9l1 14 9 7 9 5 2 6-1 7-2 19 3 12 3 13 10 9 11 7 9 8-4 10-4 8-4 5-7-8-12 11 1 13-10-10-6 13-20-5-14 3 5 13-6 7-4 6-11-1-10-9h-6v-13l-10-3v-29l-5-6-5-9-14-4 1-6-3-2v-10l-2-4 5-6-3 6 7-11 8-4v-20l3-8v-5l-1-17 4-7-14-15v-17z" />
    <path id="panchagarh" fill="#9a9a9a" fill-rule="evenodd" stroke="#fff" stroke-dasharray="none"
      stroke-dashoffset="0" stroke-linecap="round" stroke-linejoin="round" stroke-miterlimit="4"
      stroke-opacity="1" stroke-width="1"
      d="m121 88-3-9-2-6 6-9 5-11 5-15 10-14 2 16 2 8 10 10 9-2 3 8 10 3 1 7 10 4 1 5 10 2 6-7 4 10 5 6 8 5 2 5 6-3 4 4-4 9 4 3 5 4v2l10-1v5l2 5h-16l2 11-12 3-1 4 10-1 9-3 8-8 7 5-2 11 5 9 7 8-3 9v23l-4 10 3 13-6 8-9 13-10-3-14-1-5-10-6-5 8-14-5-9-7-8-9-3-5-5-4-8-6 3-5-3-9-2-6-3-7 5-9-2-9-4-8 5-1 6-9-2-9-5-3-4 9-5 5-6-4-7v-18l14-1 5-5 5-7 11-4 2-8 6 9 7-3 5-9-5-6-5-8v-8l-9-8-11 3-6-10-7 5-7-1-6 10z" />
    <path id="thakurgaon" fill="#9a9a9a" fill-rule="evenodd" stroke="#fff" stroke-dasharray="none"
      stroke-linecap="butt" stroke-linejoin="miter" stroke-miterlimit="4" stroke-opacity="1"
      stroke-width="1"
      d="m55 323-6-11-8-10 5-11-12-3 3-19 9-6-1-8 5-10 15-10 5-13-11-6 6-11 2-11 14-5v-13l19 3 13-4 19 12 4-9 12-3 11 4 10-1 25 6 10 11 9 3 12 15-9 13 3 8-6 6-3 10h-8l-7-10-3 8h-8l-4 13 5 5-6 1-7 13-3 7-4 8 5 6-7 1h-5v-6l-16 1v10h-6l-2 12 8 4-5 5v11l6 4 8 6-2 8-8 2-8-8-6-4v-4l-9-9h-7l-3-9-13-7 1-6-1-4-12 4-7 6-6-7-15 12z" />
    <path id="lalmonirhat" fill="#9a9a9a" fill-rule="evenodd" stroke="#fff" stroke-dasharray="none"
      stroke-linecap="butt" stroke-linejoin="miter" stroke-miterlimit="4" stroke-opacity="1"
      stroke-width="1"
      d="m341 144-4-10-10 8-5-8 8-6-4-6-6-1-4 4-13-7-2-11 12-18 12-4v8l3 2 11 4 8 7 16-1 4 9-8 1 7 7-7 8h15l5 8-1 4h-7l-8-8v12l6 7 10 11 1 7-3 4 11 22 20 4 10 10 1 7-5 3 1 2 9 1 10 5 9 10 16 4 7-14 5 1 1 7 7 2 5 5 5-4-3 24 10 1 14 15 2-1v7h11l2 4-12 14-6 2 1 14-13 10-4-1-1-11-4 1-2 6-10-1-8-2-1 2-25-15s6-7 0-8l-12-5v-9l-8 1-11-8-12-5-8-9-16-5-7-12-7-28 4-19v-7l-20-13 1-24 10-4-6-8-7-2z" />
    <path id="dinajpur" fill="#9a9a9a" fill-rule="evenodd" stroke="#fff" stroke-dasharray="none"
      stroke-linecap="butt" stroke-linejoin="miter" stroke-miterlimit="4" stroke-opacity="1"
      stroke-width="1"
      d="m219 232-6 6-3 10-8 2-8-11-2 9h-9l-4 13 6 4v4l-7-2-11 25 3 6-2 4-10 1-1-7-4 2-14-2 3 12-6-2-2 11 7 3-4 9 1 9 13 9v10l5 4-2 11-5 3v9l8 5h11v10l9 6 3 9 15 1 9-2 2 6 12 1v5l17 3 5-5 6-4s15 6 11 1c-3-5-3-13-3-13l7 7 8-7v12l6 2 5 11-5 13-6 3 7 4 1 10 16 16 4-6 4 5v5l31 2 4 5-2 9 14 7 13-2 6 10 17-3 37 9 10-5v-9l-10-11-1-11-13-11 2-5-4-3h-6l-1-7h-11l-8-9 4-2-12-7-9-35-5-12-19-4-8-20-18-11-2-17-14-4-5-5-7-1 3-13h-12l-1-30-10-17-12-3-3-9v-11l-21-4-9-11z" />
    <path id="rangpur" fill="#9a9a9a" fill-rule="evenodd" stroke="#fff" stroke-linecap="butt"
      stroke-linejoin="miter" stroke-opacity="1" stroke-width="1"
      d="M421 493v-10l-16-11 4-6-10-3v-5l-12-1-10-9 6-1-16-8-10-46-20-5-9-20-15-8-5-20 13-12-4-13 14-3 21 3 4-9 12 9-1-14 12-13 5 10 15-22 19 12h8v9l14 5 5 11 20 12 2-5 15 8 4 3-1 4 11 3 4 5-11 4 10 4 3 5v9l-3 2v6l7 4 1 4-5 3-10 8 4 6-6 4-4-6-7-3-2 4-10-1-5 6 13 11-1 8 7 5-9 11-8 2-9 9-12 24v2l3 6-6 3 14 10h-33z" />
    <path id="kurigram" fill="#9a9a9a" fill-rule="evenodd" stroke="#fff" stroke-linecap="butt"
      stroke-linejoin="miter" stroke-opacity="1" stroke-width="1"
      d="M501 363v-8l-11-10 11-1-7-8h-9l-4-11 9-7v9l6 4 11-9 1-16 17-14-2-5-11-1v-9l-5 4-12-17h-10l4-22h17l2 5-1 6 8 7 2-5 6-2v-6l-6-2-1-11 14-10h11v-6l-4-2-1-10-4 1-2 5-3 4-5-3 5-8-2-5-3-5v-6h5l8-9 2-6-1-8 4-3h11l7 6-5 5-1 6-1 2 3 8 5-4h14l4 11 12 21-5 3v7l8 2 6 19h12l-12 11 12 4 9 3v4l-6 6-11 10 1 14-6 8 5 9 5 9-8 7v7l6 2-2 9 11 9v32l-6 12-1 20-3 11-4 4-1 13-6-3-9-5v7l5 4-11 8-5-1v-5l-2 3-10-1v-7l5-2-5-1v-6l3-10-15-4 9-4-5-7v-5l-11-10h-9l-2 6-4-10-15-7-5-13-6-7v-10z" />
    <path id="gaibandha" fill="#9a9a9a" fill-rule="evenodd" stroke="#fff" stroke-linecap="butt"
      stroke-linejoin="miter" stroke-opacity="1" stroke-width="1"
      d="m399 513 21 7 10-5 3-9-10-13 28 1-11-11 9-1-6-10 17-27 6-8 6 3 10-14-8-5 1-11-11-8 3-6 10-4 10 2 2 10 10-5-7-8 15-9 10 14 9 6 5 11 4-8h7l10 9v5l6 6-12 6 18 4-3 4v11l2 2-4 1v7l10 1 5-5v6l4 2v20l6 14 2 8-9 13-6-2-9 8-1 11-9 12-7 9v6l3 6 5 1-6 4-2 7-3-4-14-2-11 4-2 6h-7l-2-5-19-3-5-7-3-1-4 5-6-4-4-1-3 5-9-1-4-12h-5l-4-4-14-1-5 6-7-6v-4l-10-14h-4l-5-6-2-6 6-13z" />
    <path id="joypurhat" fill="#9a9a9a" fill-rule="evenodd" stroke="#fff" stroke-linecap="butt"
      stroke-linejoin="miter" stroke-opacity="1" stroke-width="1"
      d="m336 637-2-22 3-3 1-27-7-7h-6l-3 5h-5l-5-10v-6l4-2 1-18-7-1 3-3-5-10 7-6-2-8 3-18 15-5 5 2 11 8 14-2 6 9 17-3 14 5-5 10 6 10 6 5 9 12-1 4 11 7v5l-7 6-5 3 5 7-8 2 3 5-8-3-6 17h-5v10l4 3-2 5-6-1v-4h-14l-1-8-8-4-2 17h-3l1 5 7 5v4l-11 7-4 3-6-5-6 7v-5h-6v5l-3-3h-8v-8l11-1z" />
    <path id="naogaon" fill="#9a9a9a" fill-rule="evenodd" stroke="#fff" stroke-linecap="butt"
      stroke-linejoin="miter" stroke-opacity="1" stroke-width="1"
      d="M323 647v-9l13-1-3-22 5-2-1-25-7-13h-3l-5 6-6 2-6-11v-5h5l3-20h-13l7-2-7-10 5-6-10-2h-5l-16-10-4 9-9 6h-2l-7-7-6 4-15-9-8-3-3 5-23-1-7 12h-6v-7l-4-4-3 5-5-6h-8l-6-5-3 5-8 4-1 10 9 5v3l-8 4v17l2 4-6-1-1 11 6 5-5 6-6 4v7l-6 1v5h8l8 7 1 14h4v-5l1-5h5l9 9v5l-9 15-6 2-10 1-1 4-12-3-3 8 8 5 5-3h15l-5 8 6 2 13 1 4 8-7 1-6-2h-5l-1 3 9 3 7 3 1 4 7 4 13 3v9l7 3 7-10 6 8-1 14 5 5 1-3h6l8-3 17-13h5l1 5 9-1 6 7 3-2h9l7 9 1-3 8-1 3 5v12l7 5 6 1 14 1v8l2 2h5l1-3v5h8l2 7 5-6 4 1 9-7v-13l-4-2v-9l10-15 3-6-1-11 3-10-6 5-14 2 1-12-9-14h-2l-10 10-4-2-11 10-1-27-5-2 7-10z" />
    <path id="nawabganj" fill="#9a9a9a" fill-rule="evenodd" stroke="#fff" stroke-linecap="butt"
      stroke-linejoin="miter" stroke-opacity="1" stroke-width="1"
      d="m174 690-7-6-9-3 1-5 18 4-4-7h-11l-11-5 6-8-11-2-5 5-10-5 2-9 10 4 3-5 13 1 4-5 10-16-13-12-3 11-8 1 3-12-8-9-7-1-4 9-15-2-2 10h-4l-1 5h8v6l-4 8-3-8-6 7-3-7-7-5-4 8 4-12-13-9 2-7-9-2-1 4H65l-10 6-1 6 6 6 2 18-22 15 2 9-7-1-4 4-1 10-1 8-1 6-7-1-6 4 4 4 6 5-1 4 13 9-1 7 8 8-4 11 5 10 6 7h9l7 8 5 6 9-1 31 9h12v-6h-1l-6-10v-17l-6-7v-11l15-8 10-1 13-9-1-9h26l3-3-5-4-5 3-9-5 16-11z" />
    <path id="bogra" fill="#9a9a9a" fill-rule="evenodd" stroke="#fff" stroke-linecap="butt"
      stroke-linejoin="miter" stroke-opacity="1" stroke-width="1"
      d="m322 684-1-26-5-4 10-8h7l4 8 1-8h4v7l9-11 6 6 15-12-13-13 7 3 1-19 7 4 1 7 14 2v5h10l-1-8-6-4v-7l6 1 7-19 9 5-4-8h9l-6-8 12-8 1-8-5-2 5-5 14 3 9 5 2 11 11 2 3-6 11 6 4-7 10 10 15 2 6 6h5l4-8 21-3 4 6 3 2-3 10h4l3 8-5 8 5 3-3 6 5 8 2 8-7 2v11l10 11h9l4 6-3 4h-17l-3 3v8h-2v8l-12 18-9-9-6 4-5-5v6l-5 5-2 10 5 2-2 6 1 3 8-1 7 6-5 6 9 5-5 6h-8l-1 5-7-3-5-7-1 6h-8l-4-5-10 5-8 1-10-6-25 1v-6l-6-8h-4l-8-8-9-1-5 4 2 10-1 3-14-11v-5l5-3-2-7-8 7-4-4-6 13-8-17 6-7-2-19-6 7-12-2 1-6-11-18-9 10-4-5-12 11z" />
    <path id="natore" fill="#9a9a9a" fill-rule="evenodd" stroke="#fff" stroke-linecap="butt"
      stroke-linejoin="miter" stroke-opacity="1" stroke-width="1"
      d="M290 904v-6l12-1-2-6-16-3 5-5-5-2 7-4-5-7 20-8-6-10v-7l-13 1-5-12 16-11-2-40 12-8-8-9h-8l11-7 13 2 5-10-1-5h8l-1 7 7 6 10 1 9 1 11-7 2-14h-5v-11l10-12 8 15 5-13 5 3 8-8 3 5-7 9 15 11 1-5-5-6 6-6 11 2 8 6 7 7 4 8 4 4-21 28-13 15 8 4 2 7 6 4 2 23-10 10v6l-6-1-12 22-8 5h-8l-4 9-11 8-22 5-5-5-4-1-5 9v8l-15-1-12-4-5 7-11-3z" />
    <path id="sirajganj" fill="#9a9a9a" fill-rule="evenodd" stroke="#fff" stroke-linecap="butt"
      stroke-linejoin="miter" stroke-opacity="1" stroke-width="1"
      d="M426 827v-19l-6-5v-5l-8-7 33-41-2-5h22l9 8h8l12-7 10 5 2-8 5 10 9 2v-6h6l6-5-10-6 5-5-9-7-7 1-3-1 7-7-7-3 4-14v-8l6 6 8-3 7 8 16-18-2-7 2-12 15 1 5 6 4 4 3-5h3l7 6 3 1 2 8-8 1-1 4 7 6v18l-2 10h-8l7 7 1 9-6 4-2 7-5-1-6 7 6 9v10l-8 6-4 6 17 19-7 7 1 5 9 6 6 10-2 36 3 4-3 4v5l3 1 5 5v4l4 4-1 14-9 18-16 6h-9l-10-12-15-12h-11l-16-13-12-3-2-6 7-2 1-9-5-2 4-3v-5l-5-6-4 3-11 2-4-2v-9l5-2s0-8-5-8h-6l-4 6h-3l-2-7v-10l-11-7-10-3-18-3z" />
    <path id="pabna" fill="#9a9a9a" fill-rule="evenodd" stroke="#fff" stroke-linecap="butt"
      stroke-linejoin="miter" stroke-opacity="1" stroke-width="1"
      d="M333 907v-9l5-9 6 6 25-4 13-10 2-10 8 2 11-6 7-22 8 4 1-10 10-10 26 6 9 4v12l3 8 9-5 8 2-5 4v10l5 3h11l5-6 5 9-8 6h7v7l-8 4 3 9 11 1 16 13 11-1 16 14 9 12-13 3v7l-4 1 1 11 6 8 10-3 5 15h-5l-10-11 4 15 15 2 11 7-11 4-7 4-15-1-14-7-18 5-11 5-30-18-5-12-15-16h-6l5 12-6 7-14-2-9-13-12-13-5-3h-17l-8-4h-13l-8-2-10 9v-6l-10-4-5-10 3-16-8-8z" />
    <path id="kushtia" fill="#9a9a9a" fill-rule="evenodd" stroke="#fff" stroke-linecap="butt"
      stroke-linejoin="miter" stroke-opacity="1" stroke-width="1"
      d="M231 883h14l12 11 18 10 14 1 13 3 5-9 10 6h16l8 14-3 11 4 11 5 1 6 2v7l11 5 4 10 5-6 6 3 8 9 17-1-12-11 15-4 13 10-10 3 2 8 11 8 7 5 8-1 5 3-2 11-1 17-9 10 3 6h-9l-15-10-3-1-3 7h-11l-6 9-8-3-10 9-1-11h-7l1-8-9-2-1 5 6 9-9 2v8l-10 4v-16l-1-11-5-6-5 4-6 8-6-14-10-3 6-7-11-3-9-6 5-5v-5l-7 2-5-4 8-5-3-10-5-6-9 5-4-12-3-5h-4v9l-14-14h8l5-3-8-7-6 1-4 3-1-8 9-2-11-6 7-4-15-11-4-30z" />
    <path id="rajbari" fill="#9a9a9a" fill-rule="evenodd" stroke="#fff" stroke-linecap="butt"
      stroke-linejoin="miter" stroke-opacity="1" stroke-width="1"
      d="M440 1008v-16l-6-5 7-4 18 1 10 1 6 8v8l2 9 19 11-5-13 10-2 3 6 6 4 17-11 6 4-1 6 6 7v-10l28-1 13 3 9 11 1 13-11-8-9-11h-29l-2 5h25l13 8 16 13 6 4 5 3-6 2-2 7h-12l-1 6-9-3v17l10 7-2 6h-9l-3-6-2 6-13-1-2-15-15 13h-6l-3-11h-5l-2 5-13-6-2 5 7 5-7 4-5-2v-6l-10-1-5-14-12-8-2-8-17-1-2 4-15-14-3-7-4-8 9-8v-12z" />
    <path id="meherpur" fill="#9a9a9a" fill-rule="evenodd" stroke="#fff" stroke-linecap="butt"
      stroke-linejoin="miter" stroke-opacity="1" stroke-width="1"
      d="m250 951 15 16 1-12 8 7v7l3 5 8-7 8 13-11 8 8 6 7-2 3 4-9 4v3l-1 7-6-4-5 8 1 11-11 1v23l-10 11-10 2-6 5-5-2-17 14-2 4-18 1 2-14-9-2-2-5 6-4 2-8-6-3 1-13 7-7-9-12 6 3 7-8v-2l-3-4 1-13-2-3 7-4 6 3v7l4-5 8-1 13-13 8-1 3-8-2-10 1-6z" />
    <path id="chuadanga" fill="#9a9a9a" fill-rule="evenodd" stroke="#fff" stroke-linecap="butt"
      stroke-linejoin="miter" stroke-opacity="1" stroke-width="1"
      d="m216 1083 22-16 6 1 5-6 10-3 9-10 1-23 9-1-2-11 8-6 6 4 2-11 6 7 15 1-8 7 10 4 2 6 8 9 2-7 6-6 5 6 2 28-1 17-3 13-3 5-8 2v3l5 4-2 6-13-2-8 2 6 1 4 9-1 17-6 3 7 4 3 5-14 11h-11l-2 12h-8l-7-6-8 3h-11l-4-4v-14l4-11 7 2-1-8 3-7-3-4-6-1 5 6-9 7-5-5 1-5-4-4-10-5-16-12 4-9-9-8z" />
    <path id="jhenaidah" fill="#9a9a9a" fill-rule="evenodd" stroke="#fff" stroke-linecap="butt"
      stroke-linejoin="miter" stroke-opacity="1" stroke-width="1"
      d="m256 1163 15 3 8-5 5 7 9 1 2-14 8 2 17-10-2-6-10-7 5-2 3-17-4-6-6-4 7-4 15 6 2-6-5-6-2-4h8l10-17-2-20 9-3 4-9h6v-5l-6-7 1-5 8 3v7l7 2 1 8h5l5-8 9 4 6-9h11l4-7 15 10 10 2 1 5 18 15 1 7-3 4h-3l-3 5 4 4 1 4-4 2v7l5 3-1 2h-6l-6 10 1 13-1 14-4 6-5 5-6-1-8 15-1 8 5 1-5 4v6l-6 6-5-4-3 3 4 10-9 4-21 3-6-14h-10l-5-11 8-5-13-5-5-4-4 4 8 10h-13l-9 5 7 7 7 4-9 1-17-5-3 1 7 5-4 9-3 6-2 6h-21l-12-6v8l-13-1-2-6-10-1-6-4v-6l-8-5v-6l3-5 10-2-2-7 9-8z" />
    <path id="magura" fill="#9a9a9a" fill-rule="evenodd" stroke="#fff" stroke-linecap="butt"
      stroke-linejoin="miter" stroke-opacity="1" stroke-width="1"
      d="m420 1168-6-4v-6l9-15 6 1 10-12v-15l-1-12 3-10h9l3-4-7-1v-9h4v-4l-5-5 1-5 7 2 2-5-1-7 1-4 16 1 3 7 12 9 4 13 5 6v8l5 7 5 2v5h-6l-5 4 1 3h18l10 7 3 8h4v14l8 13 3 8-11-8-5 5 6 3v16h-15l-6 11-6 2-9-11-5 3-8 9-5 3h-2l-6-7-4 1-7-9h-2l-2 3h-6l-7-5-1-8-7 2-13-10z" />
    <path id="jessore" fill="#9a9a9a" fill-rule="evenodd" stroke="#fff" stroke-linecap="butt"
      stroke-linejoin="miter" stroke-opacity="1" stroke-width="1"
      d="m307 1210 10-18-10-8h8l12 6h14l-16-12 6-5 17 1-9-10 4-6 3 5 15 5-7 5 4 9 11 2 5 14 15-2 16-4-5-10 2-4 6 4 7-6-2-7 5-3 16 12 6-2 1 6 8 8 6 1 4-5 6 9 11 3-4 7 7 3-4 4 1 15-4 5 3 11-11 1v4l6 2 1 5-4 1 2 9 11-7h4l-2 12 8 2v3h11l3 3-3 9 7 12s7 9 2 9h-8l-8-2-4-4-6-15-4-4-9 7 3 8-8 11-16 8-1 6 5 6-1 16-2 5-13-6v-6l-5-2-2 4-11 10-7-1-11 6h-8l-9-6-1 1-5-4-1-6 7-1-8-11 7 1 1-4-5-8-9-6-2 7h-19l-8-6-6-4 5 12-5 5-19-3-5-5-6 3h-5l4-7-15-6 2-22 8-3-4-6v-6l-5-4 10-16 12-5-1-10 13-8 5 3 3-7-5-2-1-7-11 9-6-4-3-9z" />
    <path id="narail" fill="#9a9a9a" fill-rule="evenodd" stroke="#fff" stroke-linecap="butt"
      stroke-linejoin="miter" stroke-opacity="1" stroke-width="1"
      d="m476 1210-6-9 10-1 10-10 4-4 7 11 9-3 6-9h14l3 10h10l2 2-9 10 4 7h13l6 8v5l-3 6 3 1 9-6 10 1-1 9-4 8-5 10h-6l-10-2 16 13 5 8 5 12 14 9v6l-4 1-11 3-29-12-10 12-16-9-5 7h-4l-13-16 5-7-4-7-12-2-7-6 3-10-5-1-11 11 2-10-1-7-8-3 14-2-2-11 5-5-3-18z" />
    <path id="satkhira" fill="#9a9a9a" fill-rule="evenodd" stroke="#fff" stroke-linecap="butt"
      stroke-linejoin="miter" stroke-opacity="1" stroke-width="1"
      d="m354 1668-11 5 3 9 7 11-6 21 1 8 10 2 11 16 10 2 4-8-1-7-5-6-9-2-9-7 2-21-7-23zm-21-361 9 11-6 7-8-5-10 2-5-5-11 6 3 10 7 8 4-6 5 3-1 6 5 2-2 8-7 7 5 5-5 1-1 11-8-3 3 11 10 13-12 21 13 9-3 7-2 10 11 9-2 11 7 12 1 14 5 3-11 4 1 7 5 4-5 21 13 1 2 10-10-2v6l8 8 7 2v11l9 7 1 16 11-2-8 12h-12l-1 10 4 12 11 20-4 2-1 30 9 11 1 16 1 9 15 7 11-5 8 15-3 6 8 7-5 11-11 13 15 6 14-4-2-6h9l1-7-6-4 5-7v-25l-5-3 10-8 8-24 8-7-4-11-10-19-10-19-4-9 9-8h-21l12-18 7-13 5-31-13-20v-6l8-6-13-9 2-23 11-6-11-21 1-29 7-8 6 11 8-10-3-6-7-1-5-5 5-10 2 5 7 2 2-8 6-4-1-6-11-19-13-6-6-11-2-4-10 8-9 1-7-7-4 2-5-11 7-2-11-11 10 2-5-15-7-5-1 9h-20l-18-11z" />
    <path id="khulna" fill="#9a9a9a" fill-rule="evenodd" stroke="#fff" stroke-linecap="butt"
      stroke-linejoin="miter" stroke-opacity="1" stroke-width="1"
      d="m433 1719-3 23 14 8 4-13-15-18zm11-324-4 2-2 9-6-3-2-7-7 11 5 6h8l3 8-8 10-6-11-8 7v27l11 23-11 7-2 22 12 10-7 4v7l13 21-6 29-17 32 20-1-8 9 22 46 5 12 8 2 1 8-14 3-9 17 5 5 4 11h5l2 9 4 13 16 1 9-14 5-3 5-9-3-6-3-7-12-8 10-5 17-17 1-14v-15h5l9-32 1-25-6-24 17-16 4-8 5-1 8-13v-15l-12-33-6-3v-15l-8-18-3-21 5-12 10-10 6-21 5-4 5 3 9-10 4-8-2-10-3-4v-8h13l8-7 5-26-29-10-12 11-15-8-6 8-6 3-14-2-6-3-10-19-9 3 3 10-9 11-16 8-2 5 5 5-1 24-14-7 1-6-6-2v4l-12 10-8-1 9 14 13 6 9 16v10z" />
    <path id="faridpur" fill="#9a9a9a" fill-rule="evenodd" stroke="#fff" stroke-linecap="butt"
      stroke-linejoin="miter" stroke-opacity="1" stroke-width="1"
      d="m491 1083 8 2 1 6 6 3 7-4-8-6 3-4 13 5 2-5 5 1 2 10 7 1 14-14 3 15 12 2 3-7 3 6 8 1 4-6-11-6v-20l9 4 2-6h12l1-6h3l7 1 2 7 26 6 9 10h7l4 11 27 4 16 11 8 14 1 17h-7l-1 13-7 6 10 6-5 11-5 17-6-3-10-6-4 12-5-1-1-6h-5l-6-9-8-1 6 8-7 1-10 6v-10h-8l-6 4-4-7h-8l-15 14-20 1-2 5 8 5-1 4-2 5-12 9h-9l-4-5h-13l-5-8 9-10-11-2-3-10v-16l-6-5 5-5 14 11-5-10-10-15 1-12h-2l-5-8-7-6-21-1-1-3 6-5h6l1-3-10-9-5-15z" />
    <path id="gopalganj" fill="#9a9a9a" fill-rule="evenodd" stroke="#fff" stroke-linecap="butt"
      stroke-linejoin="miter" stroke-opacity="1" stroke-width="1"
      d="m592 1302 1-5-13-7-6-16-17-17 12 1 7-18 2-9-9-4-11 8-1-2 2-8v-4h5l16-10 2-8-9-6 2-6 17 1 16-14 8 1 6 5 6-4 6 1 2 10 8-6 9-1-5-9 5 1 7 10h5l2 7h4l3 13-4 15-12 6s4 8 0 8h-11l-5 19 10 6 5-8 6-3 11 7 5 4 9-9 12 7-5 3-1 9 12 3-4 2v11h-10l-4 8-10 5v7l-4 1v5l-7 5-3 14-4 5-1 3-8 2h-13l-2 10h-2l-10-6-14 1-12-7-2-7 8-6-13-9 1-15z" />
    <path id="bagerhat" fill="#9a9a9a" fill-rule="evenodd" stroke="#fff" stroke-linecap="butt"
      stroke-linejoin="miter" stroke-opacity="1" stroke-width="1"
      d="m578 1306 14-5-2 16 14 5-9 9 2 8 12 9 16-5 11 12 1 24-12 6-7 3-2 12h18l3 4v19l7 17-5 9 7 23-14-7-10-5-4 3 19 14v5h-5l-9 11v22l-10 18-4 10-2 21 11 16 4 19-15 19 6 12-2 23 7 19v11h-7v10l-25 16-8-7-21-2-13 3 23 18-5 10h-20l-14-3 9 17-12 4-14-6 5-12-10-15v-14l-2-14 3-28-3-16 9-24 1-30-7-26 21-17 13-9 3-28-14-28-5-5v-12l-9-18-3-22 15-26 7-21h11l12-14v-12l-7-6v-10l20 2 5-14 2-18z" />
    <path id="jamalpur" fill="#9a9a9a" fill-rule="evenodd" stroke="#fff" stroke-linecap="butt"
      stroke-linejoin="miter" stroke-opacity="1" stroke-width="1"
      d="m545 557 17-19-1-11 8-10 9 2 8-10-2-13-6-11v-21l13-8-7-4v-8l14 9-4 20 8 7-2 10 9 6h9l6-8 11 2 8-1v19l-3 2-7-5-4 17-7 8 3 8 10-1-1 6-5 6-1 10 11 9-1 7-9 5 1 5h-6v6l6 13 2 7 7-1 6 7-2 8 8 3 29 8 2 8 17-13 23 11-1 15-11 12-9-1h-20l-11 2-19 22-6-8-2-4-9-4v8l-10 6-5-4-4 8 4 7 8 5-3 5-4-1-5 11h-6v8l-7 3v13l-7 3-9-2v-11l-8-6 10-1 4-26-10-11 7-1 2-9-12-7-5-1-2 5-8-9h4l3-6-2-6-8 1-10-11-2-10 7-1-2-11-5-7 2-6-5-5 5-5v-11h-9l7-8-6-4 4-9-2-13z" />
    <path id="tangail" fill="#9a9a9a" fill-rule="evenodd" stroke="#fff" stroke-linecap="butt"
      stroke-linejoin="miter" stroke-opacity="1" stroke-width="1"
      d="m588 934 10-16-1-15-5-11-8-3v-5l4-3-4-5 3-15 1-22-17-19 8-11-17-16 11-12 3-15-9-7 9-6 3 2 7-10 11 4 1-6 5-9 4-6 2-6 5-4 6-8 7 1v-5l-9-8-1-6 1-6 4 5 12-7 1-8 8 4 10 14 15-23 12-5 7 4 2 11h11v21l10 15v6l-6 9-2 7 9 20 26 16-6 2-4 9 11 20 2 8-4 6 9 23 8 3 7 3 2 3-10 5v11l-7 3-7 5-5 13 2 19-9 1-5-5-1 6h-4l1 9-13 13-10 7h-4l-11-8-8 8h-3l-8-5v8l-6 6-3-9-5-3-11 12-7 3-6 6-4-7-5 8h-8l-7-6-3 4-4-8-3-14z" />
    <path id="manikganj" fill="#9a9a9a" fill-rule="evenodd" stroke="#fff" stroke-linecap="butt"
      stroke-linejoin="miter" stroke-opacity="1" stroke-width="1"
      d="m587 935-20 6-13 1 2 13 11 13 15 14 1 7 5 6-1 13 13 18 15 10 15 4 6 7h-13l10 10 6-4 6 12 23 7 7-7v-13l16-3 11-4 29 4-8-21 13-13-25-5-9-11-6-14-9-5-6-16-12-6 10-8-24-2-2-9-7-3-12 12-4-2-8 10-4-6-5 11-8-3-6-5-4 5-4-7-4-16z" />
    <path id="dhaka" fill="#9a9a9a" fill-rule="evenodd" stroke="#fff" stroke-linecap="butt"
      stroke-linejoin="miter" stroke-opacity="1" stroke-width="1"
      d="m668 1072 6-8v-12l21-3 7-4 28 6-7-23 13-11-21-6-6-1-13-23-10-5-4-16-13-9 10-7-21-3 1-6v-7l10 7 11-9 15 8 11-5 8 12 9-5 10-2 4 6 6-18 12 17-10 8 8 3 19 2 1 24 10-3 6 6h9l6-5h6l2 10v9l-3 7 11 32 5 5-5 3-21 10 9 14-4 14-11-10-4 6-3 16-9-2 5-15-11-6-7-8-18-3-8 11-1 6-1 17-6 8-9-5-1 10-4 6-12-6-2-12-3-12-10-6-21-7z" />
    <path id="madaripur" fill="#9a9a9a" fill-rule="evenodd" stroke="#fff" stroke-linecap="butt"
      stroke-linejoin="miter" stroke-opacity="1" stroke-width="1"
      d="m700 1134 16 2 10 8 11 5 25 8-5 8-17 29-17 11 4 22 15 11 8 17 12 9-14 18 10 9 4 7-6 5h-14l-15-4 1-16 2-14-7-3-3 6h-16l-10-6v-5l6-2-11-8-10 9-13-10h-7l-8 10-11-7 8-19 15 1-3-7 11-6 4-16-6-11 6-13 17 8 7-26-5-10 6-5v-15z" />
    <path id="shariatpur" fill="#9a9a9a" fill-rule="evenodd" stroke="#fff" stroke-linecap="butt"
      stroke-linejoin="miter" stroke-opacity="1" stroke-width="1"
      d="m822 1262-10 2-6 11 4 11 14-2 10 12 5-7-2-14-5-8-10-5zm-21 22-18 5-10 7-4 9-12-9-9-12 5-11 7-10-10-11-9-15-12-9-6-23 16-12 13-22 10-16 18 2 16 12 7 12h26l5 12 2 12 5 19-7 16-10 8 7 11-23 6-7 19z" />
    <path id="gazipur" fill="#9a9a9a" fill-rule="evenodd" stroke="#fff" stroke-linecap="butt"
      stroke-linejoin="miter" stroke-opacity="1" stroke-width="1"
      d="m697 937 20-17-2-10h5v-7l7 7 8-1-2-21 4-13 18-8-3-11 11-5-3-4 7-2 9-1 3-8 8 9 7-1 5 3 4-20 12-2 4 5 15 6v7l10 9h11l3-3h10l13 8 8 4-8 5 2 11 5 10-4 8-1 8 7 7-14 3-5-5-3 4 5 2 2 23-6 15-6 1 3 7-7 12-10 7-6-5-13-14-1 6-7-2-10 21-6-5-5 4-10 3-8-8-10 3v-25h-17l-10-4 9-9-7-10-3-2-8 14-4-7-10 5-8 4-18-11z" />
    <path id="sherpur" fill="#9a9a9a" fill-rule="evenodd" stroke="#fff" stroke-linecap="butt"
      stroke-linejoin="miter" stroke-opacity="1" stroke-width="1"
      d="m681 644-1-8-20-5-17-6 2-8-6-7-6 1-1-7-7-9-3-10 8 1v-6l8-5 1-6-9-7-2-9 6-7 1-10-10 1-3-7 10-8 2-17 5 6 5-5v-18l9 7 12 8 6 3 16 7 14 3 19 3 13 6h9l4 6v11l1 14-2 8 15 8-5 8-13-2-9 12 8 6-5 8 4 9 8 5-5 3-7-3 1 7 6 4-6 13-16-1-10-5-14-7-16 15z" />
    <path id="mymenshingh" fill="#9a9a9a" fill-rule="evenodd" stroke="#fff" stroke-linecap="butt"
      stroke-linejoin="miter" stroke-opacity="1" stroke-width="1"
      d="m756 847-11-4-10-21 5-5v-13l-13-18 3-9 8-2-18-10-8-7-10-18 2-7 7-9v-6l-11-16 1-21-11-1-4-10 13-2 11 2 11-13v-13l6-3 9 2 9-11-9-6v-8l7 3 8-1-10-5-5-11 5-8-6-6 8-12 13 5 5-10-10-4-5-6v-31l-1-5 6-1 6 5h11l4 7 26 5 12-5 15-6 17 3 6-4 10 5 8-7 7 3-3 6-6 18-1 9-7 5 10 11-1 8-9 1-5 7-2 10-5 2-5-14-4 5-7-3-4 3 10 7 3 10-3 8h3l6 12h8l-1 13 6 5-3 5h8l9 8 13 2 5-4 11 4-3 8-6-2 2 9 5 2 3 3-6 7-2 13 10 8 9 5 3 16 7-5 1 5 10 6 3 5-8 12-8 9-9-4-5-8-8 15-5-10-7 13-10 2-9-8h-11l-4 10 12 9 12 7-1 16-6 5-2 11 7 14 3 7-8-3-12 5h-12l-10-7 1-7-17-7-1-4-13-2-5 20-5-2-6 2-7-9-4 8-21 3z" />
    <path id="kishoreganj" fill="#9a9a9a" fill-rule="evenodd" stroke="#fff" stroke-linecap="butt"
      stroke-linejoin="miter" stroke-opacity="1" stroke-width="1"
      d="m888 862-14-12-4-14-2-7-2-10 9-5 1-16-25-17 4-5v-6l10 1 10 9 9-1 8-13 7 6 5-12 10 9 11-5 9-13 6-9 27-5-17 2 13-2h16l9 2 13-9 12 3 5 9 14-9 7-6h14l-3 10 12 12v9l-4 6-1 3-18 10 10 3 3-4 8 3 5 9-1 7-9 4 13 9 2 7-8 2-4 5 6 5v7l-9 2-15 2-3 6 7 3 3 5-7 4-15 4-14 3-4 10-16-1-13 12v4l8 9 10 2 2 9-2 6-7 5s8 4-1 6l-11 4-6-6-4-9-11 1-8-8h-10l-1-10 8-6-15-4-4-10-9-1-6-13-7-7-4 1-3 3-9 2z" />
    <path id="netrokona" fill="#9a9a9a" fill-rule="evenodd" stroke="#fff" stroke-linecap="butt"
      stroke-linejoin="miter" stroke-opacity="1" stroke-width="1"
      d="m934 746-10-3-2-9-8 4-3-12-11-7-6-8-2-13 9-8-11-6v-8l5 2 5-8-14-5-2 5h-13l-8-8h-12l5-7-5-5v-12l-8-1-5-14h-4l1-5-1-11-11-7h14l2-6 5 15h6l3-12 3-6h7l5-10-12-11 8-3-3-8 5-8 7-15 10 1 3 4 21-14 8 11 32 2 4-4 10 5 16-14 1 6-3 2-2 23 5 5-2 2-8 2-2 6 10 2-5 6-1 13 6 11v17l15 4 10 10 23 1 6 10v11l5 10 5-10 7-1 5 8-4 10-9 3v12l6 4 8 1 10 3 5 7 3 5-7 8-10 8-14 1-21 13-3-6-15-4-12 8-8-1-18 1h-15l-14 8z" />
    <path id="sunamganj" fill="#9a9a9a" fill-rule="evenodd" stroke="#fff" stroke-linecap="butt"
      stroke-linejoin="miter" stroke-opacity="1" stroke-width="1"
      d="M1053 737v-10l17-15-7-12-16-5-9-5 2-11 8-4 4-9-5-8-4-3-9 13-5-9 1-10-7-11-21-2-9-11-17-3v-16l-5-11v-14l6-6-12-3 2-5 12-2-6-7 3-23 2-6 20-4h14l17 4 34-7 31 16 5-6 15 5 16 10h11l5-5 9 3 18-10v10l7 1 3 7 19-5 7 1-2 8 10 8 1 12-6 7v4l14 13-2 5-3 1v4l7 4v10l-7 14v4l7 10-12 2-7 8 8 16-8 2 8 11-11 22-19-2-1 6 4 4-5 4-5-7h-10l-17-3-4 5 4 5-8 7-18-14-1-7-10-1-11 10-11 6 1 10-2 6-8-5-11 10-10 2-11-13z" />
    <path id="sylhet" fill="#9a9a9a" fill-rule="evenodd" stroke="#fff" stroke-linecap="butt"
      stroke-linejoin="miter" stroke-opacity="1" stroke-width="1"
      d="m1204 714 14-23-9-11 8-1-6-17 8-8h10l-10-12 9-15 1-12-10-6 7-7-13-14v-5l5-5v-13l-10-8 1-6-7-6 4-7h3l12 4 7-9 37 2 23-4 8 7 8-9h20l13 4 12 14 5-1 5 3 5-2 8 5v6l6 1 15 8 10 2 4-4h5v10l14 4 12 7-2 8 5 11 11 4-5 6 11 1 5 7-1 19h-5l-5-3-8 8-15-1-21-4-12 4-10 6 9 10-2 8-11 21h-9l-18 3-5-10h-6l-2 8-5 16-12 10-6 3-15 3-6-5-8 5-9-1-3-6-9 5-6-6-8 8-10 14-19 1-4-9-13-1 5-7-10-8z" />
    <path id="habiganj" fill="#9a9a9a" fill-rule="evenodd" stroke="#fff" stroke-linecap="butt"
      stroke-linejoin="miter" stroke-opacity="1" stroke-width="1"
      d="m1040 856 8-2-5-8-5-2 2-8 15 2 9-4v-9l-5-6 9-2-2-8-8-10 5-6 1-8-2-5-7-4-7 4-9-4 18-6 6-17 12-9 9-9 9 10 3-7-3-9 8-12 16-5h7l8 7 10 15 7-10v-3l6-5 5 2 20-2 5 11 6-3-5-6v-6l16 2 15 4-8 11 13 1 2 7-8 9-9-6-8-1-3 3 7 12 8 5h-8l-9 6-2 20-2 35 7 21-7 21-5 4v4l6 5v4l-5 3v26l-16 10-18 2-11-8h-14l-12-7h-11l-3 8 8 10-3 8-6 9-4 12-18-5v-8l3-3-2-10-10-21 12-3-10-5v-15l14 4v-8l-11-5 17-12v-7l-11-3-11 20-10-8-19-7z" />
    <path id="moulovibazar" fill="#9a9a9a" fill-rule="evenodd" stroke="#fff" stroke-linecap="butt"
      stroke-linejoin="miter" stroke-opacity="1" stroke-width="1"
      d="m1188 865 9-24-9-19 6-57 8-5 14 1-10-5-13-14 6-4 9 1 9 9 7-10 19 1 20-25 6 7 8-4 3 6 13 1 5-5 5 5 17-3 17-10 7-26h6l4 10 17-4h12l-2 9-4 8-9 16-3 22-19 13-2 22 6 9v7l-9 17h-16l-25-3-10 2 10 9 3 9-7 3-2-6-1-5-8-1-8 8 4 5v27l-6 8-2 24h-9l-6-13-10-9 5-5-10 3h-11l-4-8-7 1h1v24l5 7-6 5-7-2-3-6-12-8-11-18z" />
    <path id="narshingdi" fill="#9a9a9a" fill-rule="evenodd" stroke="#fff" stroke-linecap="butt"
      stroke-linejoin="miter" stroke-opacity="1" stroke-width="1"
      d="m849 980 12-11 5-7-5-9h8l5-13v-14l-3-12-6-4 5-3 6 7 12-2h3l-7-9 4-16-4-9v-12l5-5 7 1 9-7 11 18 9 4 6 10 12 5 2 3-8 4 6 8-8 2 13-1 8 8 11-3 3 12 7 4-2 3-8 13 4 11-6 2-8 20-5 4-2 6-2 2-16-1-8 4h-8v-3l-9-1-3 3-2 16-7 12-11-10-1-6-3 8-10-2-4-4 8-3-4-9-9 4-2 6-4-8 9-12-15-4z" />
    <path id="narayanganj" fill="#9a9a9a" fill-rule="evenodd" stroke="#fff" stroke-linecap="butt"
      stroke-linejoin="miter" stroke-opacity="1" stroke-width="1"
      d="m807 1070-11-17 28-10-15-35 4-9v-11l9-24 7 3 1-6 15 18 18 8-9 8 2 8 14-9 5 6-9 9 13 3 15 5-2 5-3 11-9 8-2 11-9-3h-6l-3 9v12l-16 8-6 6-6 7-10-1v-7l-9 6-7-6 1-13z" />
    <path id="brahmanbaria" fill="#9a9a9a" fill-rule="evenodd" stroke="#fff" stroke-linecap="butt"
      stroke-linejoin="miter" stroke-opacity="1" stroke-width="1"
      d="m914 1053-15-6v-4l-13-10 4-9 11-14 1-17 9-5 4 5h11l4-4 21 3v-9l7-3 5-20 10-3-6-11 11-16 14-6-1-5 7-7-2-13-8-1-7-14 10-12 17 3 6-10 21-8 22 6 11 8 13-20 10 3v7l-16 11 10 6v6l-12-3-2 14 8 5-9 3 6 20 7 8v4l-5 2v14l-14 6 5 12-10 3-7 15 7 8 1 6-6 5-2 10 5 10-8 10-5-4h-9l-6 5 1 15 7 2 3-5 4 3v16h-5l-9-7-2 3-10-10v-9h-5l-1-5-10-3 6-5-14-11-19-1-9 7h-15l-6 1 2 10-11 3-14-10-7 5 1 4 4 3-6 10z" />
    <path id="munshiganj" fill="#9a9a9a" fill-rule="evenodd" stroke="#fff" stroke-linecap="butt"
      stroke-linejoin="miter" stroke-opacity="1" stroke-width="1"
      d="m837 1095 3 6 4 7 3 14 17-8 16-4-8-14-7-13h-16l-12 12zm-54 53 32 7-4 17-28-24zm-68-30 5-19 11 5 7-8v-16l8-19 18 5 17 12-5 18 11 1 5-19 21 14 18 4 3 8 7 6v12l-2 10-8 14-4 14-12-14h-23l-18-5h-14l-15-4-30-19z" />
    <path id="comilla" fill="#9a9a9a" fill-rule="evenodd" stroke="#fff" stroke-linecap="butt"
      stroke-linejoin="miter" stroke-opacity="1" stroke-width="1"
      d="m888 1097 11-20 4-6-6-9 2-15 14 6 6-9-3-5-1-4 6-3 15 9 11-3-2-9 7-2 14 1 8-8 19 2-3-1 11 6 7 5-6 5 10 3 1 4h5l-1 10 11 9 2 5-1 11 3 7 10 11v7l6 2-3 3 1 5 12 10 7 21 6 22 11 4-11 8 1 5 9 4-4 3v4l3 7 2 3v5l1 33 5 6 5 9-2 11-9 6-13-7-10 1-16-2-8-5-8-1-9 5-3-2h-9l-11-6-6-10-1 1h-7l-4-7 8-2 5-8-1-15 6-9-7-7-1-9-8-10-3-8-13-9-2-9-9-6-4-17-18-5-12 11-5-3-5 10h-5l-12-6v-9h-1l-5-6-9-8 7-4v-8l5-8zm-19-29-1 12 8 10 2 5 5-1 6-10 8-12-4-9 1-11-8-8-7 14-12-3v9l2 4z" />
    <path id="chandpur" fill="#9a9a9a" fill-rule="evenodd" stroke="#fff" stroke-linecap="butt"
      stroke-linejoin="miter" stroke-opacity="1" stroke-width="1"
      d="m855 1290-12-21-5-13 6-17 9-15 11-12 4-12-5-10v-9l-9-5-9-2v-9l-7-4 6-12 3-12 1-10 12-4 9-3 7-2 14 13 1 8 14 6 6-8 5 5 13-16 21 6 2 16 11 7 2 11 12 12 11 14-1 9 10 9-8 7 2 16-4 9h-9l-5 2-7-5-14 1-6-10h-6l-8 4-3 12-3 9-17 6h-7l-12 8h-2l-4-8h-4l-4 5-1 12v7l-7 8-13-3z" />
    <path id="laxmipur" fill="#9a9a9a" fill-rule="evenodd" stroke="#fff" stroke-linecap="butt"
      stroke-linejoin="miter" stroke-opacity="1" stroke-width="1"
      d="m865 1292 4 12 16 7 3 9 4 10 17 14 6 23 11 26 5 20 22 22 8 13 17 7 20-15-4-17-13-23 1-7-20-30-1-19 12-6 4-15v-21l-12-9-15-6-2-5 10-4-5-8 7 1 12-28-7-4h-13l-5-10-13 3-8 24-20 6-2-2-16 9-5-8h-4l-4 4v23l-10 4z" />
    <path id="perojpur" fill="#9a9a9a" fill-rule="evenodd" stroke="#fff" stroke-linecap="butt"
      stroke-linejoin="miter" stroke-opacity="1" stroke-width="1"
      d="m625 1586-2-18-8-10 2-18 10-18-3-11v-17l9-10h5l-6-6-15-23 17 9 11 10-1-11-5-13 6-9-6-17v-19l-5-5-17-2-2-14 20-7v-21l-1-5 2-4 2-8 18 2 7-8h1l9 11-2 12h6l8 11h7l3 8 19 3 8 3-1 6-5 1v6l-9 6-2 10-14 9 8 7v10l-13 3v24l20 4 3 2-3 7-12 12-8-6-6 3-7-3 1 14-8 12 2 9 7-3 2 14-3 8-4 17-9 16-8 1-15 16h-13z" />
    <path id="jhalokati" fill="#9a9a9a" fill-rule="evenodd" stroke="#fff" stroke-linecap="butt"
      stroke-linejoin="miter" stroke-opacity="1" stroke-width="1"
      d="m675 1514-6 5-3-10 9-11-4-19 8 8 8-5 5 5 15-10 2-8-20-6-2-23 13-4v-9l-9-9 14-8 1-10 11-6-1-3 6-3 1-6-8-5 8-7 5-3 3 8h7l5-3 10 11-3 5-2 6 3 4h7l4 6 21 4 1 5-6 1-4 6 14 3 1 6-11 2s3 8-2 8-10-5-10-5l-4 5-7-2-4 8-3 7-8 4-14 8-9 7-1 8-2 15-10 6-5 11-7 8-17-5z" />
    <path id="barisal" fill="#9a9a9a" fill-rule="evenodd" stroke="#fff" stroke-linecap="butt"
      stroke-linejoin="miter" stroke-opacity="1" stroke-width="1"
      d="m717 1468 16-8 17-8 5-13h7l2-4 15 4 3-9h9l-2-7-15-3 4-7 6 1-1-6-20-3-5-6-10-1 2-7 5-4-12-14h-8l-5-6-16 10-20-4-2-5h-5l-7-12h-9l2-12-8-10v-15l11-12 1-6 12-7 2-6 11-1v-15l15 2 5-8 6 3-1 29 18 8 10-3 6-4 7 5 4-8 15-8 17 4 18 10 12 11 15 6 15 6 11 10 8 17-8 9-12 6-21 15-12 11-1 9-15 2 9 14-4 9 1 12 5 7-15 1-13 8v8l-3 9-8-3-8-1-16-7-9 5-1 6-15 6-1-11-19 1z" />
    <path id="barguna" fill="#9a9a9a" fill-rule="evenodd" stroke="#fff" stroke-linecap="butt"
      stroke-linejoin="miter" stroke-opacity="1" stroke-width="1"
      d="m720 1467 18 1-2 9 17-5v-4l11-7 12 6-3 14-13 1-12 18 5 14-3 10-18 4-7 12-2 14 6 7 16-16 8-4 7 4 30 2 2 12-18 17-5 11 12 7v10l-12 21-10 12v26l-18 21 2 19-16 6-14 8-16-3-12-11-23-5 5-9-7-8s-7-19 2-19 21-7 21-7l-12-6-13-1 2-18 9-10-5-9-6 12-8 2-2 12 5 5-9 11-14-23-3-17v-25l17-8 9-11 7 4 13-26 5-14-4-16 18 2 12-16 11-7 1-14 4-15z" />
    <path id="patuakhali" fill="#9a9a9a" fill-rule="evenodd" stroke="#fff" stroke-linecap="butt"
      stroke-linejoin="miter" stroke-opacity="1" stroke-width="1"
      d="m836 1658-16 16-5 15 14 7 10-12-3-12v-14zm-19-29 15-11 6 11-2 12-11 12-8 9v-33zm-36-9 18 9 9 8 2 14-6 16-8 12-20-9-5 13-5 17-13 5 4-19 7-14v-16l7-14 10-22zm-5-9 4-17-13-7 20-21 5-5-3-14-27 1-9-5-24 14-4-9 2-17 23-5 3-11-7-15 14-16 11-2 5-14 16 2 5-16 25-7 2-12 12 12 11 14-2 18 14 5 9 28-13 7v15l-10 21-7 20-4 10 4 24-32 11-30-9z" />
    <path id="bhola" fill="#9a9a9a" fill-rule="evenodd" stroke="#fff" stroke-linecap="butt"
      stroke-linejoin="miter" stroke-opacity="1" stroke-width="1"
      d="m878 1644-5 14h17l-12-14zm88-129-7 23-9 26v24l18 20v-46l9-22 1-12-12-13zm-125 82 16-17 14-21 2-31-2-23-7-19-7-19v-20l-12-10-13-14 2-16 11-17 16-9 7-8 24-2 5 19 11 38 18 21 12 16 7 10-2 19-5 6v22l-7 16-4 12-3 16v28l-12 8-7 14-22 7-1 11-11 5-14 9s-5-2-5-9-5-16-5-16l8-12-14-14zm11 73 9-12 10 14-7 7-12-9z" />
    <path id="noakhali" fill="#9a9a9a" fill-rule="evenodd" stroke="#fff" stroke-linecap="butt"
      stroke-linejoin="miter" stroke-opacity="1" stroke-width="1"
      d="m983 1467 33 2 9 23 3 19 10 13-3 27-5 27-17 12-15 17-7-2 2-25 3-27 2-25-2-24-13-37zm92-12-25-8v-32l20 10 8 12-3 18zm-45-74 33 2 15 12-3 15-22-10-23-19zm-42 14h28l12 15 10 17-8 15-17 8-12-3-3-22-10-30zm-25-54 10-12 5-20-10-12-17-12 2-13 15-27 20 8 20 17 20-8 12 3 28 7 2 10-2 12v10l-8 23 23-3h12l-10 15v12l5 17-15-7-15 5-27-3-15-9-7 9s-8 8-18 3-27-22-30-25z" />
    <path id="feni" fill="#9a9a9a" fill-rule="evenodd" stroke="#fff" stroke-linecap="butt"
      stroke-linejoin="miter" stroke-opacity="1" stroke-width="1"
      d="m1091 1364-7-11 2-10 10-19-12 2-16-4-5 5 3-14-2-12 4-10-5-21 19 5 11-9 10 4 7-7-5-16-4-10v-11l4-14 2-12 15 4 11 17 11 21 3 16v14l12 17-1 12 14 5-20 2 2 19h-14l-11 7-5 16-12 17v12l-7-3v-9l-14-3z" />
    <path id="chittagong" fill="#9a9a9a" fill-rule="evenodd" stroke="#fff" stroke-linecap="butt"
      stroke-linejoin="miter" stroke-opacity="1" stroke-width="1"
      d="m1240 1566-10-7-4-21-2-19v-7l-12-19-9-25-14-12-10-16-7-13v-6l-7-8-9-7-27-20 6-8-13-12 2-11 5-21 18-7h7l2-17h14l12 3 7-8 21-6 11 6 3 10-7 12 9 12 9 18 9 16 7 12v-14h14l7 5v16l12 1 4 18 1 19 6 14-2 12 12 9 4-9 1-9-5-7 2-15 14-5 14 15 12 30 4 21-12 22 19 14-4 14-1 9 5 21 2 9v8l5 9-4 10 4 18 11 21-6 10-5 7 5 12-12 4-11-4 4-10h-16l-10 10-20 4-10 10-18 11-3-14 8-12-14-13v-15l-10-14-4-25-9-8-5-28zm-151-155 11 19 7 10v7l-4 2-3 18 5 19 16 17 10 5v11l2 3h14l9-10 3-11v-10l-3-10-28-48-2-10-37-12zm-10-35 15 5 4 12-5 2-14-19z" />
    <path id="path4387" fill="#9a9a9a" stroke="#000" stroke-linecap="butt" stroke-linejoin="miter"
      stroke-opacity="1" stroke-width="366.8" d="M1108 1183z" />
    <path id="khagrachari" fill="#9a9a9a" fill-rule="evenodd" stroke="#fff" stroke-linecap="butt"
      stroke-linejoin="miter" stroke-opacity="1" stroke-width="1"
      d="m1286 1403 18-22v-18l7-24 35-25-10-47 25-12-5-22-12-32 5-20-18-17 25-30-30-66-15 2-17-29h-8l-9 10 9 42 5 27-7 9v15l-15-5-17 15-18 30-7 22 12 22 2 31-3 8h-9v8l-20 24 15 13-5 10 3 9 15 32 15 20 2-10 18 3 2 15 12 12z" />
    <path id="coxs_bazar" fill="#9a9a9a" fill-rule="evenodd" stroke="#fff" stroke-linecap="butt"
      stroke-linejoin="miter" stroke-opacity="1" stroke-width="1"
      d="m1274 1696 27-15 13-10 12-2 18 29 20 10 7-2 5-13 12 18v7h-12l-3 17h-22l-10 13 10 24 20 20-7 12 12 20 10 12-5 18h-10l-3-10-17 19 5 23 10 17 2 17-4 12 4 20 18 22v15l2 20 13 39 10 25-3 12-7-7-10-27-13-15-10-17-7-18v-14l-42-50-5-39v-17l-8-18-15-19-2-10 12-15 3-17 5-15 5-22-3-27-10 22-12-7 10 17 7 20-12 24 2 3-24-3 2 12h-15l-2-12 7-22 5-20-12-10 17-66zm-35-22 25-5 5 24-7 23-15 24 2-17 3-34-13-15zm156 446c-2-5 0-7-4-11-6-7 1-7 6-7l-2 18z" />
    <path id="bandarban" fill="#9a9a9a" fill-rule="evenodd" stroke="#fff" stroke-linecap="butt"
      stroke-linejoin="miter" stroke-opacity="1" stroke-width="1"
      d="m1373 1696-9 12-18-7-5-10-15-22 8-10h12l5 10 17 2v-10l8-19-8-13-4-24-3-12-5-25-5-17 5-25 15 5 15-7h25l15 9 22 13 12 27 13 34-5 10 15 32 15 42 2 12-2 27v18l-3 19 3 25 7 27 3 27 2 22 13 23-13 4-12 15-8-5-2-12-8-17 3-10-8-3-7 5-13 3-14-5-3-10-10-25-7-5-10 13-5 10-10-3-13 22-7 3-8 10 3 19-7 18-3-25-7-20-3-10 15-17 10 10 7-15-10-19-9-18 4-10-12-12-5-15-7-19 12-13h20v-14h12v-8l-15-17z" />
    <path id="rangamati" fill="#9a9a9a" fill-rule="evenodd" stroke="#fff" stroke-linecap="butt"
      stroke-linejoin="miter" stroke-opacity="1" stroke-width="1"
      d="m1289 1427-5-24 12-15 10-17 3-30 37-27-2-15-5-27 22-17-5-20-7-32v-17l-18-25 23-29-10-25-18-44 5-7 20-20h13l7 12 5 20 5-17 5-10 12 5-7 17 5 17 5 13 5 44 12 17 8 15-5 10 7 7 3 10-18 12 3 20 2 17 3 13 10 12-8 39 10 20 20 10-5 12 7 30 15 14 3 20 5 25-8 5 8 24 5 30 5 25v14l5 20 5 20v22l-13-5 8 27 10 39 7 25-10 17-5-12-7-22-8-25-12-24 2-8-5-19-10-35-9-10-25-17-33-7-22 9-15-12-10-15 8-19-3-20-12-25-15-22-8 3-10 14 8 20-5 10-10-12-5-28z" />
  </g>
</svg>
